<svg width="16" height="16" viewBox="0 0 16 16" fill="none" xmlns="http://www.w3.org/2000/svg">
<path d="M8 15.1667C7.48 15.1667 6.97333 14.9 6.62666 14.4333L5.95333 13.5333C5.81333 13.3467 5.62666 13.24 5.42666 13.2267C5.22666 13.22 5.02666 13.3067 4.86666 13.4733L4.48666 13.1333L4.85333 13.4733C3.89333 14.5 3.15333 14.42 2.79999 14.28C2.43999 14.14 1.83333 13.68 1.83333 12.2V4.69334C1.83333 1.73334 2.68666 0.833336 5.48 0.833336H10.52C13.3133 0.833336 14.1667 1.73334 14.1667 4.69334V12.2C14.1667 13.6733 13.56 14.1333 13.2 14.28C12.8467 14.42 12.1133 14.5 11.1467 13.4733C10.9867 13.3 10.7867 13.2067 10.58 13.2267C10.38 13.24 10.1867 13.3467 10.0467 13.5333L9.37333 14.4333C9.02666 14.9 8.52 15.1667 8 15.1667ZM5.38666 12.22C5.41333 12.22 5.44666 12.22 5.47333 12.22C5.96666 12.2467 6.43333 12.5067 6.74666 12.9267L7.42 13.8267C7.74666 14.26 8.24666 14.26 8.57333 13.8267L9.24666 12.9267C9.56666 12.5067 10.0267 12.2467 10.5267 12.22C11.02 12.1933 11.5133 12.4 11.8733 12.7867C12.38 13.3267 12.7067 13.3933 12.8267 13.3467C12.9867 13.28 13.16 12.8933 13.16 12.2V4.69334C13.16 2.28667 12.74 1.83334 10.5133 1.83334H5.48C3.25333 1.83334 2.83333 2.28667 2.83333 4.69334V12.2C2.83333 12.9 3.00666 13.2867 3.16666 13.3467C3.27999 13.3933 3.61333 13.3267 4.11999 12.7867C4.47999 12.42 4.92666 12.22 5.38666 12.22Z" fill="#BBBBBB"/>
<path d="M10.82 7.83334H7.15334C6.88 7.83334 6.65334 7.60667 6.65334 7.33334C6.65334 7.06 6.88 6.83334 7.15334 6.83334H10.82C11.0933 6.83334 11.32 7.06 11.32 7.33334C11.32 7.60667 11.0933 7.83334 10.82 7.83334Z" fill="#BBBBBB"/>
<path d="M10.82 5.16666H7.15334C6.88 5.16666 6.65334 4.94 6.65334 4.66666C6.65334 4.39333 6.88 4.16666 7.15334 4.16666H10.82C11.0933 4.16666 11.32 4.39333 11.32 4.66666C11.32 4.94 11.0933 5.16666 10.82 5.16666Z" fill="#BBBBBB"/>
<path d="M5.18667 5.33333C4.82 5.33333 4.52 5.03333 4.52 4.66667C4.52 4.3 4.82 4 5.18667 4C5.55334 4 5.85334 4.3 5.85334 4.66667C5.85334 5.03333 5.55334 5.33333 5.18667 5.33333Z" fill="#BBBBBB"/>
<path d="M5.18667 8C4.82 8 4.52 7.7 4.52 7.33333C4.52 6.96666 4.82 6.66666 5.18667 6.66666C5.55334 6.66666 5.85334 6.96666 5.85334 7.33333C5.85334 7.7 5.55334 8 5.18667 8Z" fill="#BBBBBB"/>
</svg>
