<svg width="16" height="16" viewBox="0 0 16 16" fill="none" xmlns="http://www.w3.org/2000/svg">
<path d="M13.18 9.16667H10.4867C9.14667 9.16667 8.5 8.54667 8.5 7.26667V2.73333C8.5 1.45333 9.15333 0.833332 10.4867 0.833332H13.18C14.52 0.833332 15.1667 1.45333 15.1667 2.73333V7.26667C15.1667 8.54667 14.5133 9.16667 13.18 9.16667ZM10.4867 1.83333C9.64 1.83333 9.5 2.06 9.5 2.73333V7.26667C9.5 7.94 9.64 8.16667 10.4867 8.16667H13.18C14.0267 8.16667 14.1667 7.94 14.1667 7.26667V2.73333C14.1667 2.06 14.0267 1.83333 13.18 1.83333H10.4867Z" fill="#BBBBBB"/>
<path d="M13.18 15.1667H10.4867C9.14667 15.1667 8.5 14.5467 8.5 13.2667V12.0667C8.5 10.7867 9.15333 10.1667 10.4867 10.1667H13.18C14.52 10.1667 15.1667 10.7867 15.1667 12.0667V13.2667C15.1667 14.5467 14.5133 15.1667 13.18 15.1667ZM10.4867 11.1667C9.64 11.1667 9.5 11.3933 9.5 12.0667V13.2667C9.5 13.94 9.64 14.1667 10.4867 14.1667H13.18C14.0267 14.1667 14.1667 13.94 14.1667 13.2667V12.0667C14.1667 11.3933 14.0267 11.1667 13.18 11.1667H10.4867Z" fill="#BBBBBB"/>
<path d="M5.51333 15.1667H2.81999C1.47999 15.1667 0.833328 14.5467 0.833328 13.2667V8.73333C0.833328 7.45333 1.48666 6.83333 2.81999 6.83333H5.51333C6.85333 6.83333 7.49999 7.45333 7.49999 8.73333V13.2667C7.49999 14.5467 6.84666 15.1667 5.51333 15.1667ZM2.81999 7.83333C1.97333 7.83333 1.83333 8.06 1.83333 8.73333V13.2667C1.83333 13.94 1.97333 14.1667 2.81999 14.1667H5.51333C6.35999 14.1667 6.49999 13.94 6.49999 13.2667V8.73333C6.49999 8.06 6.35999 7.83333 5.51333 7.83333H2.81999Z" fill="#BBBBBB"/>
<path d="M5.51333 5.83333H2.81999C1.47999 5.83333 0.833328 5.21333 0.833328 3.93333V2.73333C0.833328 1.45333 1.48666 0.833332 2.81999 0.833332H5.51333C6.85333 0.833332 7.49999 1.45333 7.49999 2.73333V3.93333C7.49999 5.21333 6.84666 5.83333 5.51333 5.83333ZM2.81999 1.83333C1.97333 1.83333 1.83333 2.06 1.83333 2.73333V3.93333C1.83333 4.60667 1.97333 4.83333 2.81999 4.83333H5.51333C6.35999 4.83333 6.49999 4.60667 6.49999 3.93333V2.73333C6.49999 2.06 6.35999 1.83333 5.51333 1.83333H2.81999Z" fill="#BBBBBB"/>
</svg>
