<svg width="16" height="16" viewBox="0 0 16 16" fill="none" xmlns="http://www.w3.org/2000/svg">
<path d="M14.6667 15.1667H1.33333C1.05999 15.1667 0.833328 14.94 0.833328 14.6667C0.833328 14.3933 1.05999 14.1667 1.33333 14.1667H14.6667C14.94 14.1667 15.1667 14.3933 15.1667 14.6667C15.1667 14.94 14.94 15.1667 14.6667 15.1667Z" fill="#BBBBBB"/>
<path d="M9.5 15.1667H6.5C6.22667 15.1667 6 14.94 6 14.6667V2.66668C6 1.52001 6.63333 0.833344 7.7 0.833344H8.3C9.36667 0.833344 10 1.52001 10 2.66668V14.6667C10 14.94 9.77333 15.1667 9.5 15.1667ZM7 14.1667H9V2.66668C9 1.90001 8.64 1.83334 8.3 1.83334H7.7C7.36 1.83334 7 1.90001 7 2.66668V14.1667Z" fill="#BBBBBB"/>
<path d="M4.66667 15.1667H2C1.72667 15.1667 1.5 14.94 1.5 14.6667V6.66668C1.5 5.52001 2.08667 4.83334 3.06667 4.83334H3.6C4.58 4.83334 5.16667 5.52001 5.16667 6.66668V14.6667C5.16667 14.94 4.94 15.1667 4.66667 15.1667ZM2.5 14.1667H4.16667V6.66668C4.16667 5.83334 3.8 5.83334 3.6 5.83334H3.06667C2.86667 5.83334 2.5 5.83334 2.5 6.66668V14.1667Z" fill="#BBBBBB"/>
<path d="M14 15.1667H11.3333C11.06 15.1667 10.8333 14.94 10.8333 14.6667V9.99999C10.8333 8.85332 11.42 8.16666 12.4 8.16666H12.9333C13.9133 8.16666 14.5 8.85332 14.5 9.99999V14.6667C14.5 14.94 14.2733 15.1667 14 15.1667ZM11.8333 14.1667H13.5V9.99999C13.5 9.16666 13.1333 9.16666 12.9333 9.16666H12.4C12.2 9.16666 11.8333 9.16666 11.8333 9.99999V14.1667Z" fill="#BBBBBB"/>
</svg>
