<svg width="16" height="16" viewBox="0 0 16 16" fill="none" xmlns="http://www.w3.org/2000/svg">
<path d="M11.6267 10.2467C11.5 10.2467 11.3733 10.2 11.2733 10.1C11.08 9.90669 11.08 9.58669 11.2733 9.39336L12.6267 8.04002L11.2733 6.68669C11.08 6.49335 11.08 6.17336 11.2733 5.98002C11.4667 5.78669 11.7867 5.78669 11.98 5.98002L13.6867 7.68669C13.88 7.88002 13.88 8.20002 13.6867 8.39336L11.98 10.1C11.88 10.2 11.7533 10.2467 11.6267 10.2467Z" fill="#BBBBBB"/>
<path d="M13.2867 8.53998H6.50667C6.23333 8.53998 6.00667 8.31331 6.00667 8.03998C6.00667 7.76664 6.23333 7.53998 6.50667 7.53998H13.2867C13.56 7.53998 13.7867 7.76664 13.7867 8.03998C13.7867 8.31331 13.56 8.53998 13.2867 8.53998Z" fill="#BBBBBB"/>
<path d="M7.84 13.8334C4.40667 13.8334 2.00667 11.4334 2.00667 8.00002C2.00667 4.56669 4.40667 2.16669 7.84 2.16669C8.11334 2.16669 8.34 2.39335 8.34 2.66669C8.34 2.94002 8.11334 3.16669 7.84 3.16669C4.99333 3.16669 3.00667 5.15335 3.00667 8.00002C3.00667 10.8467 4.99333 12.8334 7.84 12.8334C8.11334 12.8334 8.34 13.06 8.34 13.3334C8.34 13.6067 8.11334 13.8334 7.84 13.8334Z" fill="#BBBBBB"/>
</svg>
