<svg width="16" height="16" viewBox="0 0 16 16" fill="none" xmlns="http://www.w3.org/2000/svg">
<path d="M10.8327 14.9998C11.477 14.9998 11.9993 14.4775 11.9993 13.8332C11.9993 13.1888 11.477 12.6665 10.8327 12.6665C10.1884 12.6665 9.66602 13.1888 9.66602 13.8332C9.66602 14.4775 10.1884 14.9998 10.8327 14.9998Z" fill="white"/>
<path d="M5.50065 14.9998C6.14498 14.9998 6.66732 14.4775 6.66732 13.8332C6.66732 13.1888 6.14498 12.6665 5.50065 12.6665C4.85632 12.6665 4.33398 13.1888 4.33398 13.8332C4.33398 14.4775 4.85632 14.9998 5.50065 14.9998Z" fill="white"/>
<path d="M3.22732 2.62683L3.09398 4.26016C3.06732 4.5735 3.31398 4.8335 3.62732 4.8335H13.834C14.114 4.8335 14.3473 4.62016 14.3673 4.34016C14.454 3.16016 13.554 2.20016 12.374 2.20016H4.18065C4.11398 1.90683 3.98065 1.62683 3.77398 1.3935C3.44065 1.04016 2.97398 0.833496 2.49398 0.833496H1.33398C1.06065 0.833496 0.833984 1.06016 0.833984 1.3335C0.833984 1.60683 1.06065 1.8335 1.33398 1.8335H2.49398C2.70065 1.8335 2.89398 1.92016 3.03398 2.06683C3.17398 2.22016 3.24065 2.42016 3.22732 2.62683Z" fill="white"/>
<path d="M13.6727 5.8335H3.44605C3.16605 5.8335 2.93938 6.04683 2.91272 6.32016L2.67272 9.22016C2.57938 10.3602 3.47272 11.3335 4.61272 11.3335H12.0261C13.0261 11.3335 13.9061 10.5135 13.9794 9.5135L14.1994 6.40016C14.2261 6.0935 13.9861 5.8335 13.6727 5.8335Z" fill="white"/>
</svg>
