<svg width="14" height="18" viewBox="0 0 14 18" fill="none" xmlns="http://www.w3.org/2000/svg">
<path d="M12.6899 0.578087L11.4345 2.06414L9.65597 0.578087C9.56564 0.508671 9.45543 0.471103 9.34211 0.471103C9.2288 0.471103 9.11858 0.508671 9.02825 0.578087L7.24973 2.06414L5.4712 0.578087C5.38087 0.508671 5.27065 0.471103 5.15734 0.471103C5.04402 0.471103 4.93381 0.508671 4.84348 0.578087L3.06495 2.06414L1.80952 0.578087C1.46297 0.316037 0.972565 0.564818 0.972565 1.00267V16.9247C0.972565 17.3625 1.46297 17.6113 1.80952 17.3493L3.06495 15.8632L4.84348 17.3493C4.93381 17.4187 5.04402 17.4562 5.15734 17.4562C5.27065 17.4562 5.38087 17.4187 5.4712 17.3493L7.24973 15.8632L9.02825 17.3493C9.11858 17.4187 9.2288 17.4562 9.34211 17.4562C9.45543 17.4562 9.56564 17.4187 9.65597 17.3493L11.4345 15.8632L12.6899 17.3493C13.0332 17.6113 13.5269 17.3625 13.5269 16.9247V1.00267C13.5269 0.564818 13.0365 0.316037 12.6899 0.578087ZM11.4345 12.4134C11.4345 12.5594 11.3168 12.6788 11.173 12.6788H3.3265C3.18265 12.6788 3.06495 12.5594 3.06495 12.4134V11.8827C3.06495 11.7368 3.18265 11.6173 3.3265 11.6173H11.173C11.3168 11.6173 11.4345 11.7368 11.4345 11.8827V12.4134ZM11.4345 9.22904C11.4345 9.375 11.3168 9.49441 11.173 9.49441H3.3265C3.18265 9.49441 3.06495 9.375 3.06495 9.22904V8.69831C3.06495 8.55236 3.18265 8.43294 3.3265 8.43294H11.173C11.3168 8.43294 11.4345 8.55236 11.4345 8.69831V9.22904ZM11.4345 6.04464C11.4345 6.19059 11.3168 6.31001 11.173 6.31001H3.3265C3.18265 6.31001 3.06495 6.19059 3.06495 6.04464V5.51391C3.06495 5.36796 3.18265 5.24854 3.3265 5.24854H11.173C11.3168 5.24854 11.4345 5.36796 11.4345 5.51391V6.04464Z" fill="#D1A23C"/>
</svg>
