<svg width="19" height="19" viewBox="0 0 19 19" fill="none" xmlns="http://www.w3.org/2000/svg">
<path d="M13.3089 8.77623C13.5704 8.77623 13.7894 8.68764 13.966 8.51047C14.1432 8.3339 14.2317 8.11489 14.2317 7.85343C14.2317 7.59197 14.1432 7.37265 13.966 7.19548C13.7894 7.01892 13.5704 6.93063 13.3089 6.93063C13.0475 6.93063 12.8285 7.01892 12.6519 7.19548C12.4747 7.37265 12.3861 7.59197 12.3861 7.85343C12.3861 8.11489 12.4747 8.3339 12.6519 8.51047C12.8285 8.68764 13.0475 8.77623 13.3089 8.77623ZM6.84936 6.93063H9.61775C9.87921 6.93063 10.0985 6.84205 10.2757 6.66487C10.4523 6.48831 10.5406 6.2693 10.5406 6.00784C10.5406 5.74638 10.4523 5.52706 10.2757 5.34988C10.0985 5.17332 9.87921 5.08504 9.61775 5.08504H6.84936C6.5879 5.08504 6.36889 5.17332 6.19233 5.34988C6.01515 5.52706 5.92656 5.74638 5.92656 6.00784C5.92656 6.2693 6.01515 6.48831 6.19233 6.66487C6.36889 6.84205 6.5879 6.93063 6.84936 6.93063ZM4.01175 18.0042C3.65801 18.0042 3.31566 17.8812 2.98468 17.6351C2.65432 17.389 2.43531 17.0891 2.32765 16.7354C1.94315 15.4434 1.62786 14.3244 1.38178 13.3782C1.1357 12.4327 0.939758 11.6021 0.793956 10.8867C0.647539 10.1718 0.54357 9.53754 0.48205 8.98386C0.42053 8.43018 0.389771 7.89957 0.389771 7.39203C0.389771 5.97708 0.881929 4.77744 1.86625 3.79312C2.85057 2.8088 4.0502 2.31664 5.46516 2.31664H10.0792C10.4944 1.76296 11.0213 1.31694 11.6599 0.978585C12.2979 0.640226 13.0013 0.471046 13.7703 0.471046C14.1548 0.471046 14.4815 0.605775 14.7504 0.875232C15.0198 1.14407 15.1545 1.47074 15.1545 1.85524C15.1545 1.94752 15.1429 2.0398 15.1195 2.13208C15.0967 2.22436 15.07 2.30895 15.0392 2.38585C14.9777 2.55503 14.9202 2.72421 14.8666 2.89339C14.8125 3.06257 14.77 3.24713 14.7393 3.44707L16.8387 5.54644H17.9229C18.1844 5.54644 18.4034 5.63472 18.58 5.81128C18.7571 5.98846 18.8457 6.20778 18.8457 6.46924V11.3139C18.8457 11.5139 18.7879 11.6907 18.6723 11.8445C18.5572 11.9983 18.3997 12.1137 18.1998 12.1906L16.2388 12.8365L15.0853 16.6892C14.9623 17.0891 14.7393 17.4084 14.4163 17.6471C14.0933 17.8852 13.7242 18.0042 13.3089 18.0042H11.4634C10.9558 18.0042 10.5215 17.8237 10.1604 17.4625C9.79862 17.1008 9.61775 16.6662 9.61775 16.1586H7.77216C7.77216 16.6662 7.5916 17.1008 7.23047 17.4625C6.86874 17.8237 6.4341 18.0042 5.92656 18.0042H4.01175Z" fill="#D1A23C"/>
</svg>
