<svg width="16" height="16" viewBox="0 0 16 16" fill="none" xmlns="http://www.w3.org/2000/svg">
<path d="M11.8267 15.1667H4.17334C2.51334 15.1667 1.16667 13.82 1.16667 12.16V7.67335C1.16667 6.01335 2.51334 4.66667 4.17334 4.66667H11.8267C13.4867 4.66667 14.8333 6.01335 14.8333 7.67335V8.63335C14.8333 8.90668 14.6067 9.13335 14.3333 9.13335H12.9867C12.7533 9.13335 12.54 9.22001 12.3867 9.38001L12.38 9.38668C12.1933 9.56668 12.1067 9.81332 12.1267 10.0667C12.1667 10.5067 12.5867 10.86 13.0667 10.86H14.3333C14.6067 10.86 14.8333 11.0867 14.8333 11.36V12.1533C14.8333 13.82 13.4867 15.1667 11.8267 15.1667ZM4.17334 5.66667C3.06667 5.66667 2.16667 6.56668 2.16667 7.67335V12.16C2.16667 13.2667 3.06667 14.1667 4.17334 14.1667H11.8267C12.9333 14.1667 13.8333 13.2667 13.8333 12.16V11.8667H13.0667C12.06 11.8667 11.2067 11.12 11.1267 10.16C11.0733 9.61333 11.2733 9.07335 11.6733 8.68002C12.02 8.32668 12.4867 8.13335 12.9867 8.13335H13.8333V7.67335C13.8333 6.56668 12.9333 5.66667 11.8267 5.66667H4.17334Z" fill="#BBBBBB"/>
<path d="M1.66667 8.77333C1.39334 8.77333 1.16667 8.54667 1.16667 8.27333V5.2267C1.16667 4.23337 1.79334 3.33333 2.72001 2.98L8.01334 0.979998C8.56001 0.773332 9.16667 0.846698 9.64001 1.18003C10.12 1.51336 10.4 2.05336 10.4 2.63336V5.16668C10.4 5.44002 10.1733 5.66668 9.90001 5.66668C9.62667 5.66668 9.40001 5.44002 9.40001 5.16668V2.63336C9.40001 2.38003 9.28001 2.14668 9.06667 2.00002C8.85334 1.85335 8.60001 1.82001 8.36001 1.91335L3.06667 3.91335C2.52667 4.12001 2.16001 4.6467 2.16001 5.2267V8.27333C2.16667 8.55333 1.94001 8.77333 1.66667 8.77333Z" fill="#BBBBBB"/>
<path d="M13.0666 11.8666C12.06 11.8666 11.2066 11.12 11.1266 10.16C11.0733 9.60662 11.2733 9.06663 11.6733 8.6733C12.0133 8.32663 12.48 8.1333 12.98 8.1333H14.3666C15.0266 8.1533 15.5333 8.67327 15.5333 9.31327V10.6866C15.5333 11.3266 15.0266 11.8466 14.3866 11.8666H13.0666ZM14.3533 9.1333H12.9866C12.7533 9.1333 12.54 9.21996 12.3866 9.37996C12.1933 9.56663 12.1 9.81995 12.1266 10.0733C12.1666 10.5133 12.5866 10.8666 13.0666 10.8666H14.3733C14.46 10.8666 14.54 10.7866 14.54 10.6866V9.31327C14.54 9.21327 14.46 9.13997 14.3533 9.1333Z" fill="#BBBBBB"/>
<path d="M9.33334 8.5H4.66667C4.39334 8.5 4.16667 8.27333 4.16667 8C4.16667 7.72667 4.39334 7.5 4.66667 7.5H9.33334C9.60667 7.5 9.83334 7.72667 9.83334 8C9.83334 8.27333 9.60667 8.5 9.33334 8.5Z" fill="#BBBBBB"/>
</svg>
