<svg width="16" height="16" viewBox="0 0 16 16" fill="none" xmlns="http://www.w3.org/2000/svg">
<path fill-rule="evenodd" clip-rule="evenodd" d="M7.33301 2.66683C4.75568 2.66683 2.66634 4.75617 2.66634 7.3335C2.66634 9.91083 4.75568 12.0002 7.33301 12.0002C9.91034 12.0002 11.9997 9.91083 11.9997 7.3335C11.9997 4.75617 9.91034 2.66683 7.33301 2.66683ZM1.33301 7.3335C1.33301 4.01979 4.0193 1.3335 7.33301 1.3335C10.6467 1.3335 13.333 4.01979 13.333 7.3335C13.333 10.6472 10.6467 13.3335 7.33301 13.3335C4.0193 13.3335 1.33301 10.6472 1.33301 7.3335Z" fill="#69747A"/>
<path fill-rule="evenodd" clip-rule="evenodd" d="M10.6289 10.6284C10.8892 10.368 11.3113 10.368 11.5717 10.6284L14.4717 13.5284C14.732 13.7887 14.732 14.2108 14.4717 14.4712C14.2113 14.7315 13.7892 14.7315 13.5289 14.4712L10.6289 11.5712C10.3685 11.3108 10.3685 10.8887 10.6289 10.6284Z" fill="#69747A"/>
</svg>
