<svg width="16" height="16" viewBox="0 0 16 16" fill="none" xmlns="http://www.w3.org/2000/svg">
<path d="M10.7933 1.33334H5.20666C2.77999 1.33334 1.33333 2.78001 1.33333 5.20668V10.7867C1.33333 13.22 2.77999 14.6667 5.20666 14.6667H10.7867C13.2133 14.6667 14.66 13.22 14.66 10.7933V5.20668C14.6667 2.78001 13.22 1.33334 10.7933 1.33334ZM11.7933 9.36668C11.7667 9.42668 11.7333 9.48001 11.6867 9.52668L9.72 11.4933C9.62 11.5933 9.49333 11.64 9.36666 11.64C9.24 11.64 9.11333 11.5933 9.01333 11.4933C8.82 11.3 8.82 10.98 9.01333 10.7867L10.1267 9.67334H4.66666C4.39333 9.67334 4.16666 9.44668 4.16666 9.17334C4.16666 8.90001 4.39333 8.67334 4.66666 8.67334H11.3333C11.4 8.67334 11.46 8.68668 11.5267 8.71334C11.6467 8.76668 11.7467 8.86001 11.8 8.98668C11.8467 9.10668 11.8467 9.24001 11.7933 9.36668ZM11.3333 7.32668H4.66666C4.59999 7.32668 4.53999 7.31334 4.47333 7.28668C4.35333 7.23334 4.25333 7.14001 4.2 7.01334C4.14666 6.89334 4.14666 6.75334 4.2 6.63334C4.23333 6.57334 4.26666 6.52001 4.31333 6.47334L6.27999 4.50668C6.47333 4.31334 6.79333 4.31334 6.98666 4.50668C7.17999 4.70001 7.17999 5.02001 6.98666 5.21334L5.87333 6.32668H11.3333C11.6067 6.32668 11.8333 6.55334 11.8333 6.82668C11.8333 7.10001 11.6067 7.32668 11.3333 7.32668Z" fill="white"/>
</svg>
