<svg width="17" height="19" viewBox="0 0 17 19" fill="none" xmlns="http://www.w3.org/2000/svg">
<path d="M12.0561 9.35908C13.3236 9.35908 14.5391 9.858 15.4353 10.7461C16.3315 11.6342 16.835 12.8387 16.835 14.0946C16.835 15.3505 16.3315 16.555 15.4353 17.4431C14.5391 18.3312 13.3236 18.8301 12.0561 18.8301C10.7887 18.8301 9.57317 18.3312 8.67696 17.4431C7.78074 16.555 7.27726 15.3505 7.27726 14.0946C7.27726 12.8387 7.78074 11.6342 8.67696 10.7461C9.57317 9.858 10.7887 9.35908 12.0561 9.35908ZM8.79781 0.749039C9.3163 0.749039 9.81356 0.953142 10.1802 1.31645C10.5468 1.67976 10.7528 2.1725 10.7528 2.6863V8.64789C9.51587 8.93906 8.41418 9.63509 7.62584 10.6235C6.83749 11.6118 6.40855 12.8348 6.40837 14.0946H4.45338C4.28055 14.0946 4.1148 14.1626 3.99259 14.2837C3.87038 14.4048 3.80172 14.5691 3.80172 14.7404C3.80172 14.9116 3.87038 15.0759 3.99259 15.197C4.1148 15.3181 4.28055 15.3861 4.45338 15.3861H6.55956C6.79192 16.3575 7.28278 17.2495 7.98106 17.9691H2.28117C1.76267 17.9691 1.26542 17.765 0.898783 17.4017C0.532151 17.0384 0.32618 16.5457 0.32618 16.0319V2.6863C0.32618 2.1725 0.532151 1.67976 0.898783 1.31645C1.26542 0.953142 1.76267 0.749039 2.28117 0.749039H8.79781ZM12.0561 11.0811L11.9779 11.0871C11.8911 11.1028 11.8112 11.1444 11.7488 11.2062C11.6864 11.268 11.6445 11.3472 11.6286 11.4332L11.6217 11.5116V13.6641H9.44773L9.36953 13.671C9.28273 13.6867 9.20281 13.7282 9.14041 13.7901C9.07802 13.8519 9.0361 13.9311 9.02024 14.0171L9.01329 14.0946L9.02024 14.1721C9.0361 14.2581 9.07802 14.3373 9.14041 14.3991C9.20281 14.461 9.28273 14.5025 9.36953 14.5182L9.44773 14.5251H11.6217V16.6802L11.6286 16.7577C11.6445 16.8437 11.6864 16.9229 11.7488 16.9847C11.8112 17.0466 11.8911 17.0881 11.9779 17.1038L12.0561 17.1107L12.1343 17.1038C12.2211 17.0881 12.301 17.0466 12.3634 16.9847C12.4258 16.9229 12.4678 16.8437 12.4836 16.7577L12.4906 16.6802V14.5251L14.6663 14.526L14.7445 14.5191C14.8313 14.5034 14.9112 14.4618 14.9736 14.4C15.036 14.3382 15.0779 14.259 15.0937 14.1729L15.1007 14.0955L15.0937 14.018C15.0778 13.9318 15.0358 13.8526 14.9732 13.7907C14.9107 13.7289 14.8306 13.6874 14.7436 13.6718L14.6654 13.665H12.4906V11.5124L12.4836 11.435C12.4679 11.3488 12.4261 11.2694 12.3637 11.2074C12.3013 11.1454 12.2212 11.1037 12.1343 11.088L12.0561 11.0811Z" fill="#D1A23C"/>
</svg>
