<svg width="16" height="16" viewBox="0 0 16 16" fill="none" xmlns="http://www.w3.org/2000/svg">
<path d="M2.20016 15.1667C1.96016 15.1667 1.72682 15.1067 1.52682 14.9867C1.08015 14.7267 0.826828 14.2067 0.826828 13.56V5.98667C0.826828 4.56667 1.98015 3.41333 3.40015 3.41333H8.58684C10.0068 3.41333 11.1602 4.56667 11.1602 5.98667V13.56C11.1602 14.2067 10.9068 14.72 10.4602 14.9867C10.0135 15.2467 9.44017 15.22 8.8735 14.9067L6.2535 13.4467C6.12684 13.3733 5.86015 13.3733 5.73348 13.4467L3.11349 14.9067C2.80682 15.08 2.49349 15.1667 2.20016 15.1667ZM3.40682 4.42C2.54016 4.42 1.8335 5.12666 1.8335 5.99333V13.5667C1.8335 13.84 1.9135 14.0533 2.04017 14.1267C2.16683 14.2 2.39351 14.1667 2.63351 14.0333L5.2535 12.5733C5.68017 12.34 6.32016 12.34 6.74683 12.5733L9.36683 14.0333C9.60683 14.1667 9.82684 14.2 9.96017 14.1267C10.0868 14.0533 10.1668 13.84 10.1668 13.5667V5.99333C10.1668 5.12666 9.46018 4.42 8.59351 4.42H3.40682Z" fill="#BBBBBB"/>
<path d="M9.79333 15.1667C9.5 15.1667 9.19333 15.08 8.88 14.9133L6.26 13.4533C6.13334 13.3867 5.85998 13.3867 5.73331 13.4533L3.11999 14.9133C2.55332 15.2267 1.97332 15.2533 1.53332 14.9933C1.08665 14.7333 0.833328 14.2133 0.833328 13.5733V5.99999C0.833328 4.57999 1.98665 3.42667 3.40665 3.42667H8.59334C10.0133 3.42667 11.1667 4.57999 11.1667 5.99999V13.5733C11.1667 14.2133 10.9133 14.7333 10.4667 14.9933C10.2667 15.1066 10.04 15.1667 9.79333 15.1667ZM6 12.4C6.26666 12.4 6.52666 12.46 6.74666 12.58L9.36665 14.04C9.60665 14.1733 9.83333 14.2067 9.96 14.1267C10.0867 14.0533 10.1667 13.84 10.1667 13.5667V5.99332C10.1667 5.12665 9.46 4.41999 8.59334 4.41999H3.40665C2.53999 4.41999 1.83333 5.12665 1.83333 5.99332V13.5667C1.83333 13.84 1.91333 14.0533 2.03999 14.1267C2.16666 14.2 2.39334 14.1666 2.63334 14.0333L5.25333 12.5733C5.46666 12.46 5.73333 12.4 6 12.4Z" fill="#BBBBBB"/>
<path d="M13.7933 12.58C13.5 12.58 13.1933 12.4933 12.88 12.3267L10.42 10.9533C10.26 10.8667 10.1667 10.7 10.1667 10.52V5.99999C10.1667 5.13332 9.46 4.42667 8.59334 4.42667H5.33333C5.05999 4.42667 4.83333 4.2 4.83333 3.92667V3.41332C4.83333 1.99332 5.98665 0.839996 7.40665 0.839996H12.5933C14.0133 0.839996 15.1667 1.99332 15.1667 3.41332V10.9867C15.1667 11.6267 14.9133 12.1466 14.4667 12.4066C14.2667 12.52 14.04 12.58 13.7933 12.58ZM11.1667 10.22L13.3667 11.4533C13.6067 11.5867 13.8267 11.62 13.96 11.54C14.0933 11.46 14.1667 11.2533 14.1667 10.98V3.40665C14.1667 2.53998 13.46 1.83332 12.5933 1.83332H7.40665C6.53999 1.83332 5.83333 2.53998 5.83333 3.40665V3.41999H8.59334C10.0133 3.41999 11.1667 4.57332 11.1667 5.99332V10.22Z" fill="#BBBBBB"/>
</svg>
