<svg width="21" height="22" viewBox="0 0 21 22" fill="none" xmlns="http://www.w3.org/2000/svg">
<path d="M20.734 8.91333C20.8318 8.6683 20.8573 8.39867 20.8074 8.13856C20.7575 7.87845 20.6345 7.63954 20.4537 7.45207L13.9963 0.749039L12.1701 2.64465L16.423 7.05927H0.168347V9.74048H19.5407C19.7961 9.74055 20.0458 9.662 20.2582 9.51477C20.4706 9.36754 20.6362 9.15824 20.734 8.91333ZM0.266501 13.2488C0.168729 13.4939 0.143169 13.7635 0.193055 14.0236C0.242941 14.2837 0.366032 14.5226 0.546753 14.7101L7.00419 21.4131L8.83035 19.5175L4.57748 15.1029H20.8321V12.4217H1.45983C1.20438 12.4214 0.954613 12.4999 0.742171 12.6472C0.52973 12.7944 0.36418 13.0038 0.266501 13.2488Z" fill="#D1A23C"/>
</svg>
