
<svg xmlns="http://www.w3.org/2000/svg" width="60" height="60" viewBox="0 0 60 60" fill="none" className="injected-svg" data-src="https://res.cloudinary.com/dswxtf2ay/image/upload/v1583075363/Mint_InternetBanking/illustrations/local-bank_aqsn9k.svg">
    <circle cx="30" cy="30" r="30" fill="#FAF5EB"></circle>
    <g opacity="0.2">
    <path fill-rule="evenodd" clip-rule="evenodd" d="M14.3044 42.8279H46.0576V44.7838H49.3146V50H11.0479V44.7838H14.3044V42.8279ZM47.3649 48.182V46.582C46.2723 46.582 45.201 46.582 44.1084 46.5624V44.6261H16.2762V46.582H13.0192V48.182H47.3649Z" fill="#A0A0A0"></path>
    </g>
    <g opacity="0.2">
    <path fill-rule="evenodd" clip-rule="evenodd" d="M30.5032 10.542C36.8737 14.9151 43.2514 19.295 49.6363 23.6815C49.6773 23.7118 49.7152 23.7419 49.756 23.7743C49.8217 23.8264 49.8949 23.8845 50.0007 23.9591H10.3629C10.4673 23.8864 10.5704 23.8145 10.6724 23.7434C11.4312 23.2144 12.1306 22.7268 12.8482 22.2392C18.512 18.3532 24.1827 14.4541 29.8604 10.542C29.9419 10.4571 30.0589 10.4086 30.1818 10.4086C30.3047 10.4086 30.4217 10.4571 30.5032 10.542ZM43.806 22.1615H43.9795V22.1583C43.9795 22.1514 43.9825 22.1443 43.9862 22.1361C43.992 22.1226 43.9992 22.1061 43.9968 22.0823C39.3902 18.9278 34.7836 15.7599 30.177 12.5786C25.5562 15.7665 20.9425 18.9411 16.3359 22.1023C16.3468 22.112 16.3522 22.1219 16.3577 22.1319C16.3631 22.1418 16.3685 22.1518 16.3793 22.1615H18.2877C20.4195 20.6994 22.5459 19.2373 24.6724 17.7752C26.799 16.313 28.9256 14.8508 31.0575 13.3886C35.3142 16.313 39.5637 19.2373 43.806 22.1615Z" fill="#A0A0A0"></path>
    </g>
    <g opacity="0.2">
    <path fill-rule="evenodd" clip-rule="evenodd" d="M23.0667 26.112V40.6939H15.9534V26.112H23.0667ZM21.1164 27.9101H17.9241V38.8762H21.1164V27.9101Z" fill="#A0A0A0"></path>
    </g>
    <g opacity="0.2">
    <path fill-rule="evenodd" clip-rule="evenodd" d="M44.3829 26.112V40.6939H37.2913V26.112H44.3829ZM42.4347 27.9101H39.2636V38.8958H42.4347V27.9101Z" fill="#A0A0A0"></path>
    </g>
    <path d="M44.4947 22.5553C44.4947 22.5357 44.5164 22.5153 44.5164 22.4753C39.9098 19.3138 35.3032 16.1459 30.6965 12.9716C26.0685 16.1527 21.4618 19.3142 16.8555 22.4953C16.8767 22.5149 16.8767 22.5353 16.8988 22.5545L44.4947 22.5553Z" fill="#F7F8FB"></path>
    <path d="M13.9629 42.4326H45.7162V44.3689H48.9727V49.5851H10.7064V44.3689H13.9634L13.9629 42.4326Z" fill="#D0A23C"></path>
    <path d="M10 23.5432C10.8783 22.9308 11.6916 22.3776 12.4853 21.8232C18.163 17.93 23.8337 14.0309 29.4975 10.126C29.5816 10.0455 29.6976 10 29.8189 10C29.9401 10 30.0562 10.0455 30.1403 10.126C36.5038 14.5123 42.8815 18.892 49.2734 23.2652C49.3806 23.3452 49.4664 23.4036 49.6378 23.522C36.4182 23.5432 23.2625 23.5432 10 23.5432Z" fill="#D0A23C"></path>
    <path d="M22.7286 25.6971V40.279H15.6152V25.6971H22.7286Z" fill="#D0A23C"></path>
    <path d="M36.9547 25.6971H44.0468V40.279H36.9547V25.6971Z" fill="#D0A23C"></path>
    <path d="M26.543 25.6971H33.6351V40.279H26.543V25.6971Z" fill="#D0A23C"></path>
    <path fill-rule="evenodd" clip-rule="evenodd" d="M29.8301 20.2725C31.2796 20.2724 32.4546 19.1889 32.4546 17.8522C32.4543 16.5154 31.2791 15.4319 29.8296 15.4319C28.3801 15.4321 27.2053 16.5158 27.2054 17.8525C27.2056 19.1891 28.3807 20.2726 29.8301 20.2725ZM30.0823 17.2872C30.3275 17.3831 30.4851 17.6066 30.4808 17.8521H30.4821C30.4729 18.1764 30.1896 18.4371 29.838 18.4449C29.5717 18.449 29.3293 18.3036 29.2254 18.0775C29.1215 17.8513 29.1767 17.5897 29.365 17.416C29.5533 17.2423 29.8371 17.1914 30.0823 17.2872Z" fill="#D0A23C"></path>
</svg>