<svg width="8" height="8" viewBox="0 0 8 8" fill="none" xmlns="http://www.w3.org/2000/svg">
<path d="M5.05999 4.00011L7.35998 1.70011C7.64998 1.41011 7.64998 0.930107 7.35998 0.640107C7.06998 0.350107 6.58999 0.350107 6.29999 0.640107L3.99998 2.94011L1.69998 0.640107C1.40998 0.350107 0.929985 0.350107 0.639985 0.640107C0.349985 0.930107 0.349985 1.41011 0.639985 1.70011L2.93998 4.00011L0.639985 6.30011C0.349985 6.59011 0.349985 7.07011 0.639985 7.36011C0.789985 7.51011 0.979985 7.58011 1.16999 7.58011C1.35999 7.58011 1.54998 7.51011 1.69998 7.36011L3.99998 5.06011L6.29999 7.36011C6.44999 7.51011 6.63999 7.58011 6.82999 7.58011C7.01999 7.58011 7.20998 7.51011 7.35998 7.36011C7.64998 7.07011 7.64998 6.59011 7.35998 6.30011L5.05999 4.00011Z" fill="white"/>
</svg>
