<svg xmlns="http://www.w3.org/2000/svg" width="16" height="16" viewBox="0 0 16 16" fill="none" className="injected-svg" data-src="https://res.cloudinary.com/dswxtf2ay/image/upload/v1583076003/Mint_InternetBanking/icons/copy_sk63wc.svg">
    <path fill-rule="evenodd" clip-rule="evenodd" d="M7.33337 6.66667C6.96518 6.66667 6.66671 6.96514 6.66671 7.33333V13.3333C6.66671 13.7015 6.96518 14 7.33337 14H13.3334C13.7016 14 14 13.7015 14 13.3333V7.33333C14 6.96514 13.7016 6.66667 13.3334 6.66667H7.33337ZM5.33337 7.33333C5.33337 6.22876 6.2288 5.33333 7.33337 5.33333H13.3334C14.4379 5.33333 15.3334 6.22876 15.3334 7.33333V13.3333C15.3334 14.4379 14.4379 15.3333 13.3334 15.3333H7.33337C6.2288 15.3333 5.33337 14.4379 5.33337 13.3333V7.33333Z" fill="#D0A23C"></path>
    <path fill-rule="evenodd" clip-rule="evenodd" d="M2.66663 2C2.48981 2 2.32025 2.07024 2.19522 2.19526C2.0702 2.32029 1.99996 2.48986 1.99996 2.66667V8.66667C1.99996 8.84348 2.0702 9.01305 2.19522 9.13807C2.32025 9.2631 2.48982 9.33333 2.66663 9.33333H3.33329C3.70148 9.33333 3.99996 9.63181 3.99996 10C3.99996 10.3682 3.70148 10.6667 3.33329 10.6667H2.66663C2.13619 10.6667 1.62748 10.456 1.25241 10.0809C0.87734 9.70581 0.666626 9.1971 0.666626 8.66667V2.66667C0.666626 2.13624 0.87734 1.62753 1.25241 1.25245C1.62749 0.877381 2.13619 0.666668 2.66663 0.666668H8.66663C9.19706 0.666668 9.70577 0.877382 10.0808 1.25245C10.4559 1.62753 10.6666 2.13623 10.6666 2.66667V3.33333C10.6666 3.70152 10.3681 4 9.99996 4C9.63177 4 9.33329 3.70152 9.33329 3.33333V2.66667C9.33329 2.48986 9.26305 2.32029 9.13803 2.19526C9.01301 2.07024 8.84344 2 8.66663 2H2.66663Z" fill="#D0A23C"></path>
</svg>