<svg width="20" height="20" viewBox="0 0 20 20" fill="none" xmlns="http://www.w3.org/2000/svg">
<path fill-rule="evenodd" clip-rule="evenodd" d="M3.33301 4.16667C3.11199 4.16667 2.90003 4.25446 2.74375 4.41074C2.58747 4.56702 2.49967 4.77899 2.49967 5V16.6667C2.49967 16.8877 2.58747 17.0996 2.74375 17.2559C2.90003 17.4122 3.11199 17.5 3.33301 17.5H14.9997C15.2207 17.5 15.4326 17.4122 15.5889 17.2559C15.7452 17.0996 15.833 16.8877 15.833 16.6667V12.2167C15.833 11.7564 16.2061 11.3833 16.6663 11.3833C17.1266 11.3833 17.4997 11.7564 17.4997 12.2167V16.6667C17.4997 17.3297 17.2363 17.9656 16.7674 18.4344C16.2986 18.9033 15.6627 19.1667 14.9997 19.1667H3.33301C2.66997 19.1667 2.03408 18.9033 1.56524 18.4344C1.0964 17.9656 0.833008 17.3297 0.833008 16.6667V5C0.833008 4.33696 1.0964 3.70107 1.56524 3.23223C2.03408 2.76339 2.66997 2.5 3.33301 2.5H7.78301C8.24325 2.5 8.61634 2.8731 8.61634 3.33333C8.61634 3.79357 8.24325 4.16667 7.78301 4.16667H3.33301Z" fill="#C4C4C4"/>
<path fill-rule="evenodd" clip-rule="evenodd" d="M14.4104 1.07806C14.7359 0.752625 15.2635 0.752625 15.5889 1.07806L18.9223 4.4114C19.2477 4.73683 19.2477 5.26447 18.9223 5.58991L10.5889 13.9232C10.4326 14.0795 10.2207 14.1673 9.99967 14.1673H6.66634C6.2061 14.1673 5.83301 13.7942 5.83301 13.334V10.0007C5.83301 9.77964 5.92081 9.56768 6.07709 9.4114L14.4104 1.07806ZM7.49967 10.3458V12.5007H9.6545L17.1545 5.00065L14.9997 2.84583L7.49967 10.3458Z" fill="#C4C4C4"/>
</svg>
