<svg width="20" height="20" viewBox="0 0 20 20" fill="none" xmlns="http://www.w3.org/2000/svg">
<path fill-rule="evenodd" clip-rule="evenodd" d="M9.7074 0.887043C9.89605 0.816298 10.1039 0.816298 10.2926 0.887043L16.9593 3.38704C17.2845 3.50901 17.5 3.81995 17.5 4.16732V10.0007C17.5 12.8727 15.5985 15.1676 13.8821 16.6695C13.0064 17.4357 12.1345 18.0347 11.4833 18.4417C11.1569 18.6457 10.8836 18.8029 10.6901 18.9101C10.5932 18.9637 10.5162 19.0048 10.4622 19.0332C10.4352 19.0473 10.414 19.0583 10.399 19.066L10.381 19.0751L10.3756 19.0778L10.3739 19.0787C10.3736 19.0789 10.3727 19.0793 10 18.334C9.62732 19.0793 9.62708 19.0792 9.62681 19.0791L9.62435 19.0778L9.61895 19.0751L9.60104 19.066C9.58598 19.0583 9.56475 19.0473 9.53777 19.0332C9.48381 19.0048 9.40677 18.9637 9.30995 18.9101C9.1164 18.8029 8.84314 18.6457 8.51667 18.4417C7.86545 18.0347 6.99365 17.4357 6.11791 16.6695C4.40146 15.1676 2.5 12.8727 2.5 10.0007V4.16732C2.5 3.81995 2.71548 3.50901 3.04073 3.38704L9.7074 0.887043ZM10 18.334L9.62681 19.0791C9.86141 19.1964 10.1381 19.1966 10.3727 19.0793L10 18.334ZM10 17.3863C10.1597 17.2958 10.3639 17.1759 10.6 17.0284C11.1988 16.6541 11.9936 16.1072 12.7846 15.4152C14.4015 14.0004 15.8333 12.1286 15.8333 10.0007V4.74482L10 2.55732L4.16667 4.74482V10.0007C4.16667 12.1286 5.59855 14.0004 7.21542 15.4152C8.00635 16.1072 8.80121 16.6541 9.4 17.0284C9.63608 17.1759 9.8403 17.2958 10 17.3863Z" fill="#C4C4C4"/>
</svg>
